<svg width="128" height="128" viewBox="0 0 128 128" fill="none" xmlns="http://www.w3.org/2000/svg">
  <rect width="128" height="128" rx="24" fill="#2457A7"/>
  <path d="M64 24C69.5228 24 74 19.5228 74 14C74 8.47715 69.5228 4 64 4C58.4772 4 54 8.47715 54 14C54 19.5228 58.4772 24 64 24Z" transform="translate(0 6)" fill="#F5961E"/>
  <path d="M64 34C52.2 34 40.9 38.7 32.5 47.1L38.5 53.1C45.3 46.3 54.4 42.5 64 42.5C73.6 42.5 82.7 46.3 89.5 53.1L95.5 47.1C87.1 38.7 75.8 34 64 34Z" fill="#F5961E"/>
  <path d="M58 56H70L73.5 83L64 98L54.5 83L58 56Z" fill="#F5961E"/>
  <path d="M24.8 58.4C21 65 19 72.6 19 80.4C19 104.5 38.5 124 62.6 124C74.3 124 85.4 119.4 93.7 111.1V104.3C86.1 113.1 74.9 118.2 62.6 118.2C41.8 118.2 24.9 101.3 24.9 80.5C24.9 74 26.6 67.7 29.8 62.1L24.8 58.4Z" fill="#EDEDED"/>
  <path d="M87 60V111H100V60H87Z" fill="#EDEDED"/>
</svg>
